<svg xmlns="http://www.w3.org/2000/svg" pointer-events="none" class="leaflet-zoom-animated" width="962" height="575" viewBox="-595 -388 962 575" style="transform: translate3d(-595px, -388px, 0px);"><g><path class="leaflet-interactive" stroke="#201920" stroke-opacity="1" stroke-width="2" stroke-linecap="round" stroke-linejoin="round" fill="none" d="M-549 -143L-551 -147L-548 -150L-554 -158L-552 -160L-548 -160L-547 -165L-549 -167L-546 -173L-541 -173L-537 -177L-531 -178L-533 -182L-527 -180L-521 -185L-518 -181L-518 -177L-509 -180L-508 -178L-505 -181L-502 -190L-498 -194L-493 -192L-485 -193L-484 -196L-479 -197L-478 -201L-477 -200L-472 -203L-471 -202L-460 -210L-453 -211L-451 -215L-446 -215L-447 -218L-445 -219L-445 -225L-447 -227L-445 -231L-440 -234L-443 -236L-437 -239L-437 -245L-443 -260L-443 -271L-447 -276L-451 -278L-447 -282L-444 -281L-441 -283L-432 -284L-421 -289L-418 -286L-409 -284L-408 -290L-413 -293L-413 -297L-412 -302L-410 -302L-407 -310L-401 -328L-401 -332L-396 -331L-387 -326L-373 -327L-370 -323L-365 -328L-361 -328L-358 -332L-360 -355L-356 -361L-349 -361L-343 -364L-343 -366L-340 -368L-341 -375L-338 -378L-335 -379L-333 -377L-329 -377L-325 -379L-322 -374L-325 -373L-325 -371L-319 -368L-321 -365L-318 -362L-317 -363L-311 -359L-311 -355L-305 -353L-304 -350L-300 -350L-298 -352L-295 -351L-295 -349L-292 -346L-287 -348L-286 -344L-283 -343L-280 -335L-281 -334L-279 -332L-280 -331L-273 -324L-271 -316L-274 -310L-272 -304L-275 -301L-278 -294L-278 -291L-275 -288L-276 -287L-274 -287L-275 -285L-248 -280L-232 -280L-218 -270L-219 -269L-213 -267L-213 -265L-208 -263L-201 -264L-203 -259L-200 -258L-194 -245L-194 -242L-186 -233L-186 -230L-173 -231L-136 -226L-122 -229L-108 -227L-99 -225L-94 -219L-85 -217L-73 -211L-66 -209L-55 -211L-55 -206L-47 -205L-33 -214L-8 -224L0 -222L4 -224L15 -222L18 -224L22 -223L39 -230L50 -243L58 -246L65 -251L64 -256L59 -260L56 -266L59 -271L58 -272L61 -279L65 -282L72 -282L78 -277L92 -274L94 -277L100 -279L107 -289L120 -289L128 -293L130 -296L132 -296L134 -298L136 -306L140 -311L152 -312L154 -317L156 -317L157 -315L166 -320L175 -319L176 -321L178 -321L180 -318L181 -319L183 -317L189 -317L193 -319L193 -323L189 -332L187 -332L187 -334L181 -339L180 -342L174 -345L171 -350L165 -352L160 -351L152 -342L144 -348L137 -346L134 -347L129 -343L123 -349L122 -353L127 -357L127 -363L138 -388M159 -388L160 -388M324 -388L326 -388M328 -388L328 -388M336 -388L335 -387L337 -387L341 -383L343 -385L345 -383L346 -386L348 -382L350 -382L355 -375L360 -371L365 -372L366 -371L364 -365L365 -362L367 -363M367 -361L367 -360M367 -356L367 -350M367 -232L365 -232L362 -229L365 -228L364 -223L364 -227L362 -227L363 -226L359 -230L360 -233L353 -236L354 -235L350 -223L349 -224L347 -222L345 -224L343 -222L342 -217L340 -217L337 -214L323 -214L325 -212L325 -208L328 -205L325 -200L323 -202L312 -202L307 -207L308 -208L306 -210L303 -207L302 -208L299 -200L292 -193L292 -191L290 -191L291 -190L287 -190L285 -189L285 -187L284 -188L281 -185L275 -183L275 -181L273 -181L265 -174M-470 -10L-475 -15L-473 -18L-475 -22L-470 -25L-467 -18L-464 -19L-462 -22L-461 -21L-461 -30L-463 -31L-463 -35L-464 -34L-471 -43L-469 -45L-471 -51L-469 -53L-468 -52L-465 -57L-467 -57L-471 -61L-475 -61L-478 -64L-478 -69L-480 -70L-479 -71L-481 -73L-479 -79L-485 -80L-487 -78L-498 -82L-502 -82L-505 -88L-507 -86L-511 -86L-511 -88L-515 -90L-513 -94L-515 -102L-517 -104L-523 -105L-525 -109L-528 -110L-532 -108L-532 -110L-536 -110L-538 -112L-538 -114L-532 -114M-17 170L-20 169L-20 165L-22 162L-22 160L-19 159L-18 156L-21 153L-26 154L-28 152L-33 153L-37 150L-38 151L-38 149L-42 145L-45 148L-46 147L-52 155L-57 157L-62 155L-64 161L-68 156L-70 156L-71 159L-73 155L-77 159L-76 160L-78 160L-78 162L-87 156L-91 160L-91 162L-94 161L-97 163L-101 161L-102 169L-99 172L-100 174L-98 176L-100 178L-100 181L-98 183L-99 184L-103 182L-108 183L-108 177L-110 173L-118 179L-120 179L-122 177L-126 177L-125 176L-126 174L-128 174L-129 168L-139 168L-141 166L-139 163L-140 162L-138 162L-139 156L-136 155L-137 153L-136 154L-135 151L-146 149L-145 144L-149 136L-145 132L-155 132L-162 134L-161 135L-165 137L-167 135L-164 132L-164 128L-167 127L-167 121L-163 119L-163 112L-161 113L-157 109L-158 108L-152 104L-152 102L-148 101L-151 97L-148 96L-149 93L-147 89L-149 77L-148 71L-152 69L-154 72L-155 71L-156 66L-158 64L-157 61L-162 56L-163 57L-165 53L-167 53L-168 58L-170 58L-171 61L-169 63L-175 67L-183 61L-192 59L-194 57L-201 60L-203 64L-215 70L-219 70L-230 82L-254 83L-256 79L-254 76L-255 73L-262 72L-262 66L-264 66L-263 65L-266 62L-273 65L-277 61L-282 62L-286 59L-289 60L-291 58L-293 60L-294 59L-301 67L-303 70L-302 75L-305 77L-308 73L-306 65L-310 61L-317 64L-318 63L-318 65L-324 64L-325 66L-334 66L-342 61L-348 64L-350 61L-352 61L-352 65L-355 62L-357 56L-359 58L-365 58L-367 56L-367 50L-373 52L-376 49L-378 49L-385 38L-392 41L-398 33L-402 31L-403 32L-408 27L-413 25L-416 19L-417 20L-426 18L-429 26L-431 26L-435 20L-437 20L-439 17L-441 18L-444 15L-447 16L-450 13L-450 11L-454 8L-465 7L-468 1L-469 2L-470 0L-468 -4L-471 -8L-470 -10M1 177L-1 175L-9 176L-10 174L-15 172L-15 170L-17 170M225 175L215 187M235 144L239 123" id="国界"/><path class="leaflet-interactive" stroke="#201920" stroke-opacity="1" stroke-width="2" stroke-linecap="butt" stroke-linejoin="round" stroke-dasharray="4,4" stroke-dashoffset="4" fill="none" d="M-532 -114L-527 -118L-531 -120L-532 -123L-530 -125L-531 -130L-533 -132L-532 -140L-544 -144L-546 -140L-549 -143" id="争议"/><path class="leaflet-interactive" stroke="gray" stroke-opacity="1" stroke-width="1" stroke-linecap="round" stroke-linejoin="round" stroke-dasharray="8,4,4,4" fill="none" d="M91 166L91 168L91 166M101 160L96 162L96 167L106 167L105 161L103 159L101 160" id="港澳"/><path class="leaflet-interactive" stroke="#4190da" stroke-opacity="1" stroke-width="1" stroke-linecap="round" stroke-linejoin="round" fill="none" d="M99 163L96 162L98 160L96 162L95 161L93 156L93 160L91 162L92 163L90 167L91 168L89 168L89 166L88 169L85 170L86 171L83 168L81 172L79 171L75 174L72 173L70 175L66 173L66 175L63 177L60 176L60 178L59 177L55 179L54 178L46 180L36 187M28 187L29 181L32 179L27 177L21 180L18 178L20 177L12 175L5 178L5 176L3 178L1 177M40 185L40 185M40 185L42 185L42 187M41 187L37 187M37 187L40 185M91 166L91 166M99 163L99 163M99 163L100 164L99 163M99 163L99 163M193 87L188 86L187 88L191 88L193 92L188 95L190 99L186 106L187 105L188 108L190 108L190 105L192 109L189 108L188 111L184 107L184 109L180 110L184 112L182 114L181 113L180 116L179 113L177 113L179 117L177 117L177 119L172 120L175 121L172 125L170 123L168 125L163 125L165 129L156 137L156 139L152 142L144 143L143 148L141 148L138 153L134 153L127 157L127 155L124 154L122 158L117 155L114 156L112 159L113 160L110 159L109 156L106 158L108 160L106 162L105 159L103 159L102 162L101 161L104 162L104 164L102 162L103 165L99 163M193 87L193 87M224 43L220 41L223 46L219 51L221 53L221 57L219 57L214 62L211 62L210 64L214 65L210 65L204 70L206 72L203 78L199 79L199 81L195 83L196 86L197 85L196 88L192 90L191 89L195 86L194 85L193 87M218 -105L211 -101L208 -102L210 -100L208 -97L207 -99L205 -97L206 -92L200 -90L200 -94L196 -92L198 -90L197 -89L199 -89L195 -87L195 -85L193 -85L191 -81L190 -82L188 -80L187 -75L185 -75L185 -72L183 -70L182 -71L181 -67L185 -65L188 -61L199 -56L206 -37L208 -36L207 -35L210 -29L209 -25L217 -20L219 -14L223 -13L226 -7L224 -6L216 -9L210 -7L214 -5L216 -2M216 -2L222 1L223 4L226 6L226 12L229 15L225 11L219 11L211 15L220 23L220 25L228 28L224 32L226 34L226 41M218 -105L218 -105M218 -105L218 -105M232 -157L228 -154L229 -153L227 -151L225 -151L225 -149L222 -151L223 -150L220 -149L222 -149L221 -147L220 -148L217 -146L216 -147L213 -144L212 -145L212 -149L220 -152L219 -153L221 -153L220 -152L220 -156L222 -158L219 -156L215 -158L215 -163L217 -163L219 -168L226 -174L225 -176L227 -176L227 -178L230 -179L229 -184L226 -185L223 -190L219 -188L218 -190L213 -190L201 -175L189 -170L184 -165L182 -158L177 -153L171 -153L171 -148L163 -155L159 -152L160 -148L156 -147L158 -144L156 -143L156 -141L159 -137L161 -138L160 -135L171 -131L175 -133L180 -128L180 -126L183 -127L183 -123L177 -120L178 -116L180 -114L181 -115L181 -113L182 -114L184 -112L190 -112L193 -115L192 -116L199 -122L198 -123L206 -126L213 -124L214 -121L217 -122L219 -118L226 -120L238 -118L235 -115L236 -112L234 -112L234 -110L236 -110L235 -107L234 -108L230 -106L228 -108L227 -107L227 -109L220 -105L221 -104L218 -105M218 -105L219 -106L218 -105M224 43L224 43M224 43L224 43M224 43L224 43M226 41L226 43L224 43M226 41L226 41M229 26L229 26M229 26L229 26M229 26L230 27L229 26M231 27L229 26M229 26L227 26L225 23L226 22L231 24L231 27M231 27L231 27M231 21L233 21L231 21M231 21L230 22L231 21M232 -157L232 -157M265 -174L261 -166L248 -166L233 -159L232 -157M234 12L234 12M234 12L235 13L233 13L234 12M237 11L236 11M15 176L15 176M19 186L19 186M40 184L40 184M42 185L40 183L42 183L42 185M43 187L43 187M72 175L72 175M75 176L75 176M76 174L76 176L74 176L76 174M78 177L77 174L80 173L78 177M80 176L80 176M82 172L82 172M84 171L84 171M84 172L85 171L84 172M84 170L84 170M91 167L91 167M93 170L93 170M93 169L93 169M93 170L94 171L93 170M94 170L94 170M95 162L95 162M95 167L95 167M95 166L98 163L99 164L95 166M100 166L99 165L100 166M100 170L100 170M101 164L101 166L101 164M101 170L101 170M101 169L103 169L101 169M102 167L102 167M103 160L103 160M103 163L103 163M108 161L108 161M129 187L130 187M129 187L129 187M129 185L131 185L129 185M148 144L145 145L148 144M163 127L163 127M164 127L164 125L164 127M166 127L166 127M169 125L170 126L167 128L167 126L169 125M172 -151L172 -151M176 -153L176 -153M176 -153L175 -152L176 -153M185 148L185 148M186 113L185 112L187 114L186 113M186 145L186 145M186 141L186 141M187 140L188 141L187 140M187 105L187 105M188 97L189 96L188 97M188 142L187 143L189 141L188 142M189 105L189 105M189 105L189 105M189 88L190 87L189 88M189 111L189 111M189 110L189 110M190 88L191 87L190 88M193 106L193 106M193 96L193 96M193 99L193 99M194 144L195 142L194 144M194 95L194 95M195 90L195 90M196 89L196 89M196 89L197 88L196 89M196 84L197 85L196 84M197 -85L197 -85M199 82L199 82M200 164L201 163L200 164M200 82L200 82M201 -125L201 -125M202 92L202 92M204 -129L204 -129M205 170L205 165L199 160L195 151L196 139L211 116L219 111L225 114L225 116L227 116L224 119L225 125L221 131L216 152L210 160L209 169L207 171L205 170M205 -129L205 -129M206 -129L206 -129M206 -133L206 -133M207 -181L208 -182L207 -181M207 -135L208 -136L207 -135M209 -137L209 -137M209 -137L209 -137M210 -98L210 -98M211 63L211 63M211 73L212 72L211 73M212 64L211 63L213 63L212 64M213 63L213 63M217 -8L226 -2L220 -2L213 -8L217 -8M217 -22L217 -22M218 157L219 158L218 157M219 168L220 169L218 169L219 168M220 170L220 170M220 -1L220 -1M221 42L221 42M222 50L222 50M223 1L219 -2L223 1M223 1L228 1L223 1M224 25L224 25M224 49L224 49M224 49L224 49M224 55L225 54L224 55M224 24L224 27L224 24M224 3L225 4L224 3M225 54L225 54M225 109L225 109M225 119L226 120L225 119M225 24L226 25L225 24M225 3L227 3L225 3M226 21L225 20L226 21M227 41L227 41M227 30L227 30M227 27L227 27M227 23L227 23M228 15L228 15M228 27L228 27M228 26L228 26M228 27L228 27M229 27L229 27M229 22L229 22M229 20L230 21L227 20L229 20M229 22L229 22M229 37L229 37M229 32L228 31L230 31L229 32M230 31L230 31M230 27L229 26L230 27M231 29L232 30L230 30L231 29M231 28L231 28M231 31L230 30L231 31M232 27L232 29L232 27M233 -154L232 -153L233 -154M233 26L232 25L233 26M233 18L231 18L233 18M234 18L234 18M235 -155L235 -155M235 -156L237 -156L235 -156M236 14L236 14M237 -155L237 -155M239 23L239 23M239 -151L238 -150L239 -151M239 13L239 13M240 13L239 12L240 13M243 -162L242 -160L243 -162M244 -159L244 -159M245 -151L246 -152L245 -151M248 104L252 104L248 106L248 104M252 103L252 103M252 100L255 99L255 101L252 100M252 106L252 106M252 104L252 104M253 105L253 105M254 -166L254 -166M266 100L269 100L266 100" id="海洋"/><path class="leaflet-interactive" stroke="#747569" stroke-opacity="0.6" stroke-width="1" stroke-linecap="round" stroke-linejoin="round" fill="none" d="M-293 -91L-295 -91L-298 -94L-302 -94L-306 -97L-308 -95L-312 -99L-327 -96L-331 -98L-334 -95L-335 -96L-342 -95L-345 -93L-346 -94L-350 -91L-353 -85L-357 -85L-360 -82L-366 -85L-377 -81L-379 -78L-382 -77L-398 -77L-402 -80L-401 -81L-403 -83L-406 -82L-408 -84L-410 -84L-412 -80L-414 -80L-417 -77L-416 -76L-422 -74L-430 -76L-432 -78L-434 -76L-442 -78L-445 -77L-444 -74L-449 -70L-453 -59L-463 -59L-465 -57M-164 -22L-170 -22L-169 -17L-171 -17L-171 -14L-173 -12L-180 -12L-180 -8L-178 -6L-180 -5L-189 -10L-189 -4L-194 -8L-194 -6L-198 -8L-199 -7L-202 -10L-201 -15L-202 -14L-204 -18L-207 -17L-204 -18L-208 -20L-209 -19L-214 -24L-222 -20L-227 -21L-229 -23L-233 -21L-236 -24L-240 -24L-240 -26L-243 -25L-252 -26L-254 -28L-257 -27L-265 -33L-274 -32L-283 -36L-289 -42L-290 -47L-294 -49L-293 -53L-291 -53L-291 -61L-293 -63L-291 -67L-294 -67L-296 -69L-295 -72L-297 -76L-293 -78L-292 -87L-297 -87L-298 -90L-293 -91M-250 -151L-270 -144L-279 -143L-283 -139L-287 -139L-284 -134L-283 -136L-280 -136L-280 -124L-271 -119L-267 -110L-275 -108L-277 -106L-277 -102L-272 -99L-272 -94L-270 -92L-271 -91L-274 -90L-277 -92L-283 -92L-288 -95L-290 -91L-293 -91M-99 -41L-102 -40L-102 -44L-109 -43L-108 -46L-112 -48L-115 -56L-108 -57L-100 -52L-96 -52L-95 -55L-93 -55L-93 -59L-97 -61L-97 -67L-95 -67L-92 -71L-91 -70L-89 -74L-91 -78L-89 -78L-86 -81L-84 -79L-82 -81L-84 -85L-83 -87L-80 -86L-81 -91L-78 -94L-82 -96L-84 -100L-83 -101L-86 -104L-84 -105L-88 -109L-88 -111L-85 -112L-94 -120L-96 -124L-99 -123L-103 -127L-105 -127L-106 -125L-113 -131L-113 -133L-115 -133L-116 -135L-120 -135L-123 -138L-124 -137L-124 -139L-126 -140L-128 -139L-125 -136L-125 -134L-131 -137L-143 -148L-143 -150L-147 -152L-150 -149L-154 -151L-158 -146L-165 -149L-168 -153L-176 -155L-177 -149L-175 -143L-176 -141L-178 -142L-181 -139L-181 -135L-187 -135L-187 -133L-191 -133L-197 -138L-199 -136L-205 -136L-205 -138L-215 -137L-218 -145L-225 -144L-228 -146L-226 -147L-228 -148L-237 -148L-238 -154L-250 -151M-186 -230L-192 -225L-189 -218L-191 -217L-191 -212L-194 -210L-198 -210L-203 -206L-203 -204L-206 -208L-210 -207L-212 -204L-216 -203L-226 -192L-228 -185L-241 -183L-246 -161L-251 -155L-250 -151M-59 -118L-61 -118L-68 -125L-73 -127L-74 -130L-71 -133L-73 -138L-66 -143L-60 -150L-62 -159L-66 -160L-72 -158L-79 -152L-88 -155L-97 -153L-97 -150L-94 -148L-99 -143L-108 -147L-108 -151L-112 -149L-113 -151L-114 -150L-114 -159L-119 -158L-124 -164L-130 -168L-137 -169L-130 -171L-125 -177L-124 -186L-126 -190L-133 -191L-135 -189L-141 -189L-142 -186L-144 -188L-147 -186L-147 -184L-151 -187L-150 -185L-154 -183L-154 -190L-160 -194L-166 -202L-162 -206L-173 -231M-142 40L-144 32L-144 12L-150 4L-150 2L-149 1L-147 3L-146 0L-153 -8L-153 -12L-156 -18L-164 -22M-99 -41L-99 -39L-101 -38L-100 -35L-102 -33L-107 -36L-110 -35L-110 -29L-108 -28L-110 -24L-111 -25L-113 -23L-117 -25L-116 -24L-118 -22L-122 -26L-124 -25L-124 -23L-129 -31L-132 -26L-138 -29L-139 -28L-141 -32L-148 -36L-147 -37L-150 -42L-149 -43L-153 -47L-153 -51L-163 -54L-165 -50L-170 -47L-169 -42L-167 -42L-168 -41L-164 -39L-168 -34L-167 -32L-170 -29L-170 -27L-167 -23L-164 -22M-158 60L-155 55L-153 61L-148 58L-150 54L-150 45L-147 44L-145 48L-143 43L-144 42L-142 40M-42 68L-43 63L-45 61L-47 61L-49 63L-48 64L-54 66L-58 62L-56 60L-56 58L-59 57L-59 53L-57 53L-57 51L-65 51L-67 53L-65 57L-70 58L-72 60L-72 67L-78 74L-81 75L-81 83L-79 85L-78 90L-80 90L-79 91L-85 95L-86 92L-94 98L-98 98L-99 95L-101 95L-101 93L-105 89L-103 85L-104 86L-106 84L-105 83L-109 81L-109 77L-111 77L-116 64L-119 66L-120 65L-123 68L-127 61L-125 57L-128 54L-128 52L-130 52L-132 47L-136 51L-138 59L-137 60L-140 57L-142 50L-142 40M-39 -29L-41 -29L-40 -26L-45 -23L-53 -24L-56 -27L-58 -27L-59 -30L-56 -31L-58 -31L-57 -37L-59 -37L-61 -41L-60 -42L-62 -44L-67 -43L-72 -46L-77 -46L-76 -52L-80 -54L-80 -56L-82 -56L-90 -49L-93 -50L-88 -39L-91 -39L-92 -36L-94 -36L-94 -34L-95 -35L-97 -33L-99 -35L-97 -37L-97 -41L-99 -41M-5 -127L-12 -133L-19 -133L-23 -136L-21 -138L-20 -144L-15 -151L-18 -154L-19 -158L-21 -158L-23 -156L-27 -156L-26 -153L-30 -152L-32 -148L-31 -147L-33 -145L-34 -140L-33 -139L-35 -133L-35 -126L-38 -123L-41 -124L-46 -121L-56 -120L-59 -118M-59 -118L-53 -118L-52 -117L-54 -114L-50 -114L-48 -112L-49 -111L-42 -106L-44 -102L-41 -99L-39 -93L-39 -91L-42 -90L-41 -85L-40 -86L-40 -84L-36 -84L-34 -80L-30 -80L-30 -78L-28 -78L-25 -74L-23 -76L-24 -83L-19 -83L-16 -86L-16 -92L-18 -94L-22 -94L-23 -99L-25 -100L-23 -104L-21 -104L-20 -106L-22 -108L-20 -110L-21 -111L-11 -111M-42 68L-45 74L-46 73L-48 75L-54 75L-57 72L-60 76L-63 73L-70 80L-67 81L-68 84L-65 90L-57 86L-52 92L-55 98L-56 97L-57 104L-58 103L-56 107L-57 108L-54 107L-55 108L-53 112L-52 111L-50 113L-52 113L-52 117L-55 121M-55 121L-55 125L-52 129L-51 126L-45 127L-43 133L-42 132L-40 134L-38 132L-34 134L-32 132L-28 136L-29 143L-34 143L-39 148L-38 149M25 98L22 103L23 104L19 102L15 104L16 105L18 103L18 107L14 107L14 105L11 108L11 110L6 107L3 110L4 111L0 114L-2 114L-5 111L-7 113L-7 111L-8 112L-8 110L-10 110L-12 106L-14 106L-15 111L-18 114L-19 113L-28 118L-29 117L-28 120L-31 123L-43 117L-45 117L-47 121L-51 123L-55 121M-25 53L-26 54L-31 49L-37 53L-36 58L-35 57L-31 61L-27 61L-27 67L-33 67L-37 69L-39 67L-42 68M-11 -111L-9 -107L-1 -105L0 -102L4 -102L12 -97L11 -94L13 -92L12 -89L9 -87L11 -77L10 -75L4 -76L0 -74L-3 -76L-4 -73L-1 -69L-4 -68L-5 -69L-11 -67L-15 -71L-22 -71L-22 -65L-26 -61L-20 -57L-20 -55L-23 -56L-22 -53L-24 -50L-22 -42L-23 -41L-25 -43L-29 -41L-30 -43L-32 -43L-34 -38L-36 -38L-32 -34L-32 -32L-34 -29L-39 -29M9 -15L9 -17L1 -15L-9 -22L-11 -19L-15 -25L-19 -26L-24 -23L-33 -28L-37 -25L-39 -29M22 54L20 54L18 58L19 59L13 59L14 56L12 54L12 56L10 56L11 51L6 50L7 45L5 43L-2 45L-3 41L-6 42L-6 40L-9 41L-8 46L-11 49L-12 46L-16 49L-17 48L-19 54L-21 54L-21 50L-23 48L-23 52L-25 53M-25 53L-27 47L-34 45L-36 39L-39 40L-43 34L-39 32L-40 31L-38 31L-38 29L-35 28L-35 26L-38 23L-35 20L-35 18L-33 18L-27 22L-22 20L-18 26L-16 24L-15 25L-7 15L-8 12L-3 9L-3 11L-1 11L3 3L1 3L5 0L5 -2L7 -2L8 -5L10 -5L10 -7L5 -11L7 -11L7 -15L9 -15M-11 -111L-11 -116L-9 -120L-10 -121L-5 -127M51 -158L51 -162L49 -162L44 -156L36 -160L35 -159L37 -157L35 -155L32 -156L31 -155L33 -154L28 -150L26 -146L24 -146L24 -144L22 -143L23 -142L20 -141L17 -137L16 -134L18 -130L16 -128L14 -131L13 -123L2 -122L1 -125L-5 -127M9 -15L18 -11L23 -6L27 -6M27 -6L29 -6L29 -4L36 1L36 9L34 11L32 9L30 10L23 17L22 14L20 16L18 14L15 15L15 17L11 15L12 16L8 18L10 20L10 28L7 29L9 31L11 29L12 32L13 31L16 34L16 38L18 38L19 41L21 42M21 42L22 49L20 51L22 51L22 54M97 44L95 42L94 43L92 41L93 40L91 40L94 36L92 34L93 33L90 32L91 29L83 36L81 36L80 33L82 31L81 32L80 30L76 34L73 33L71 35L68 32L66 32L67 31L64 28L56 28L53 25L48 24L41 25L41 27L44 30L42 32L41 31L39 33L36 30L30 30L29 33L25 33L21 42M25 98L25 94L22 93L24 89L22 87L26 85L24 83L26 81L25 78L21 78L16 81L14 79L20 73L25 71L22 65L22 54M66 121L60 121L58 123L56 117L57 116L55 114L53 114L50 118L49 117L50 113L55 108L54 105L57 102L53 100L54 95L52 93L44 93L37 100L37 98L35 98L34 95L30 99L30 101L28 101L29 100L25 98M49 -36L45 -33L42 -36L40 -34L28 -36L24 -34L29 -33L29 -29L33 -29L36 -26L34 -22L27 -23L25 -19L27 -15L27 -6M30 179L29 179M30 179L29 176L31 176L33 172L39 171L39 167L44 166L44 161L46 159L51 158L50 157L55 154L55 146L57 141L59 141L59 139L61 137L62 138L63 135L65 135L63 131L66 129L66 125L64 123L66 121M39 -62L37 -63L37 -67L43 -81L40 -93L41 -104L39 -110L40 -109L44 -114L43 -117L46 -120L41 -133L48 -140L48 -144L50 -147L49 -150L52 -152L53 -155L53 -157L51 -158M39 -62L41 -58L40 -55L44 -53L43 -48L50 -41L49 -36M39 -62L42 -61L46 -63L47 -62L52 -66L59 -66L59 -68L62 -71L67 -72L66 -75L80 -74L81 -77L84 -76L84 -78L90 -80L91 -83L92 -82L91 -85L93 -89L93 -97M120 0L118 0L116 -4L111 -1L108 -4L106 -4L107 -7L103 -7L101 -9L97 -7L97 -9L94 -10L94 -18L92 -20L89 -17L87 -17L84 -20L78 -18L70 -18L60 -24L59 -23L53 -29L54 -30L49 -36M50 -34L50 -34M100 -187L99 -182L95 -182L90 -178L86 -178L86 -180L82 -179L79 -175L72 -177L68 -173L64 -163L62 -162L60 -164L56 -164L56 -160L51 -158M66 121L68 119L67 117L69 113L76 114L79 119L82 118L82 113L79 112L86 107L88 110L91 111L95 111L97 109M121 -92L118 -91L118 -93L114 -93L113 -90L112 -92L104 -93L98 -95L99 -96L93 -97M93 -97L89 -103L94 -107L94 -111L100 -123L97 -126L96 -131L90 -135L90 -139L95 -146L94 -150L96 -152L104 -152L103 -153L107 -161L104 -164L104 -168L99 -169L96 -172L98 -172L99 -175L104 -176L106 -178L102 -180L102 -184L100 -187M132 29L129 31L123 29L119 33L116 32L116 34L112 36L113 35L113 37L103 38L97 44M97 109L96 104L98 98L101 97L101 95L97 95L99 89L95 87L96 81L94 79L96 75L91 75L91 70L94 66L93 65L102 56L99 53L100 48L97 44M97 109L98 112L106 110L110 113L101 122L105 126L108 124L112 124L114 122L118 122L120 120L125 125L127 123L126 120L128 118M182 -199L169 -199L164 -207L164 -209L167 -210L167 -215L166 -216L164 -214L164 -218L162 -218L162 -223L158 -227L154 -227L152 -225L153 -224L147 -224L144 -221L145 -218L143 -218L144 -215L142 -213L137 -212L135 -214L131 -209L128 -212L121 -208L119 -206L120 -205L118 -206L117 -204L115 -206L112 -205L112 -215L110 -217L107 -216L105 -214L106 -213L103 -213L101 -209L101 -203L98 -204L96 -202L96 -199L98 -197L95 -194L100 -187M133 -61L134 -57L139 -55L138 -52L140 -48L132 -44L131 -48L128 -51L124 -51L124 -43L119 -40L119 -34L116 -32L112 -32L112 -30L114 -30L117 -27L117 -23L119 -23L118 -22L120 -23L124 -19L128 -23L128 -8L123 -7L121 -5L122 -4L120 0M132 29L130 20L128 20L129 18L126 13L128 11L127 10L131 7L124 3L123 4L120 0M160 -136L152 -126L143 -127L137 -119L135 -121L134 -118L128 -114L126 -107L122 -105L118 -100L118 -98L121 -95L121 -92M133 -61L122 -61L121 -66L119 -66L115 -70L111 -70L111 -73L113 -73L113 -75L116 -78L118 -78L122 -84L128 -86L128 -88L131 -89L131 -91L119 -85L121 -92M128 118L128 114L131 107L130 105L132 101L134 101L138 97L136 95L138 92L140 92L138 86L139 83L149 76L148 71L146 71L146 69L148 69L151 66L150 65L154 63L157 66L161 63L166 62L169 57M149 142L145 136L146 131L143 127L144 126L142 125L143 123L142 122L138 124L136 120L137 119L134 120L128 118M165 37L162 34L156 34L152 30L153 29L149 27L147 29L147 32L141 34L141 30L144 28L144 26L141 24L139 28L134 30L132 29M136 -63L133 -61M183 -71L178 -71L174 -64L170 -64L169 -59L165 -57L165 -61L163 -61L163 -63L159 -63L159 -61L155 -59L153 -59L152 -62L149 -59L143 -69L138 -68L136 -63M188 5L183 2L176 3L174 1L176 -1L176 -5L173 -5L168 -10L168 -12L173 -17L173 -21L171 -23L175 -23L179 -20L182 -23L182 -25L178 -29L179 -30L177 -30L174 -27L174 -25L169 -25L166 -28L166 -34L165 -35L163 -33L161 -35L165 -45L159 -45L156 -51L155 -50L146 -53L146 -57L140 -59L136 -63M152 -176L149 -182L154 -185L145 -186L141 -193L136 -190L135 -191L137 -188L136 -187L134 -187L130 -183L126 -183L129 -177L121 -172L123 -167L121 -167L122 -163L126 -161L129 -163L134 -162L137 -159L139 -163L143 -163M156 -142L150 -141L150 -143L147 -142L147 -144L142 -145L141 -148L145 -153L144 -158L143 -157L143 -163M144 -165L143 -163M144 -165L146 -163L149 -164L149 -173M149 -173L142 -172L143 -168L145 -168L144 -165M149 142L150 144M152 -176L152 -174L149 -173M152 145L153 146M152 -176L154 -176L159 -171L155 -171L154 -168L156 -166L156 -162L157 -161L159 -163L161 -161L159 -157L163 -155M165 37L167 37L167 35L168 36L176 28L176 21L178 19L184 19L184 16L182 16L182 14L186 13L188 5M165 37L165 39L163 39L163 43L168 48L170 54L169 57M202 79L198 73L191 75L187 69L183 73L177 73L177 69L174 64L175 59L173 57L169 57M182 -199L185 -202L183 -206L183 -220L187 -222L188 -219L192 -218L196 -207L196 -209L203 -217L210 -220L211 -219L216 -224L220 -225L222 -223L226 -229L230 -228L230 -230L232 -228L234 -230L232 -231L233 -232L238 -231L240 -229L242 -231L243 -230L246 -233L246 -235L253 -237L254 -244M192 -171L188 -177L188 -181L186 -183L183 -182L181 -186L177 -186L176 -191L182 -197L182 -199M209 7L207 7L202 12L200 8L198 9L192 4L188 5M205 80L206 81M207 -139L212 -138M226 -4L219 -6L215 -9L213 -8L212 -7L216 -3L212 0L212 4L209 5L209 7M215 13L212 10L210 11L211 10L209 7M216 13L219 13M249 -325L248 -323L245 -322L245 -320L243 -320L241 -322L241 -326L239 -326L240 -328L236 -330L233 -334L236 -339L246 -346L247 -349L251 -351L262 -363L264 -363L264 -357L266 -355L265 -353L267 -353L268 -367L272 -375L272 -379L278 -379L278 -388M220 13L221 13M223 12L225 12M227 11L229 10M232 9L234 9M237 9L239 8M367 -247L361 -251L362 -252L360 -259L356 -254L354 -258L352 -257L352 -255L348 -255L345 -253L343 -254L342 -248L338 -247L334 -254L335 -255L333 -255L332 -260L330 -261L331 -265L329 -269L326 -268L326 -266L324 -266L324 -260L319 -259L314 -269L316 -271L307 -271L308 -280L306 -284L305 -283L300 -286L295 -283L290 -284L286 -288L286 -292L281 -291L281 -289L276 -289L275 -292L273 -293L272 -290L265 -290L264 -293L262 -295L261 -294L259 -297L260 -299L258 -302L258 -310L245 -309M245 -309L243 -317L253 -320L253 -322L250 -323L251 -325L249 -325M245 -309L244 -306L239 -305L240 -301L237 -296L237 -298L234 -298L235 -299L233 -301L231 -299L224 -304L223 -299L221 -297L226 -296L226 -292L229 -290L230 -286L227 -278L229 -274L228 -271L230 -270L231 -267L231 -263L235 -263L241 -268L245 -269L245 -265L249 -261L248 -258L251 -252L251 -250L247 -248L251 -244L254 -244M249 -325L247 -327L249 -325M249 -325L249 -325M249 -325L249 -325M254 -244L256 -246L258 -242L263 -241L265 -237L264 -235L266 -235L264 -233L268 -233L270 -237L273 -238L272 -231L275 -230L274 -229L278 -223L277 -221L280 -218L279 -217L283 -217L279 -213L279 -211L287 -196L287 -194L284 -191L286 -189M-33 -78L-30 -79L-33 -78M26 86L27 85L26 86M80 30L80 30" id="省界"/><path class="leaflet-interactive" stroke="#3388ff" stroke-opacity="0" stroke-width="3" stroke-linecap="round" stroke-linejoin="round" fill="#eee" fill-opacity="0.5" fill-rule="evenodd" d="M152 -183L154 -185L146 -186L141 -191L141 -193L137 -192L137 -190L135 -190L137 -188L134 -188L130 -183L129 -184L126 -182L126 -180L129 -177L121 -172L123 -167L121 -167L122 -164L126 -161L129 -163L134 -162L137 -159L136 -160L139 -163L143 -163L145 -165L145 -168L142 -170L142 -172L149 -172L152 -175L149 -182L152 -183z" id="北京市"/><path class="leaflet-interactive" stroke="#3388ff" stroke-opacity="0" stroke-width="3" stroke-linecap="round" stroke-linejoin="round" fill="#eee" fill-opacity="0.5" fill-rule="evenodd" d="M158 -158L161 -161L160 -163L158 -163L157 -161L156 -162L157 -163L154 -170L159 -171L154 -176L152 -176L152 -174L148 -170L149 -164L148 -163L145 -165L142 -162L145 -152L142 -151L141 -147L150 -141L158 -144L156 -146L160 -147L159 -151L163 -155L160 -158L154 -158L157 -159zM159 -158L160 -159L159 -158z" id="天津市"/><path class="leaflet-interactive" stroke="#3388ff" stroke-opacity="0" stroke-width="3" stroke-linecap="round" stroke-linejoin="round" fill="#eee" fill-opacity="0.5" fill-rule="evenodd" d="M153 -185L153 -183L149 -182L150 -178L159 -171L154 -170L155 -165L157 -164L157 -162L161 -162L159 -158L162 -157L162 -154L163 -155L170 -148L172 -150L172 -153L177 -153L183 -159L182 -161L187 -169L191 -171L192 -170L188 -178L188 -181L186 -183L183 -182L181 -186L180 -185L176 -187L178 -192L177 -193L182 -198L168 -200L164 -208L165 -210L167 -210L167 -215L166 -216L164 -214L165 -215L162 -219L162 -223L158 -227L154 -227L152 -225L153 -224L147 -224L144 -220L145 -219L143 -217L143 -213L136 -212L136 -214L132 -211L132 -209L130 -209L128 -212L125 -211L117 -204L115 -206L111 -205L113 -210L111 -217L107 -217L105 -215L106 -213L103 -213L101 -209L101 -203L99 -204L96 -202L96 -199L98 -197L95 -194L98 -191L103 -179L106 -178L104 -176L99 -175L99 -173L97 -173L96 -171L98 -171L98 -169L104 -168L106 -160L104 -155L105 -154L103 -153L104 -152L99 -151L98 -153L94 -149L95 -146L91 -143L90 -140L90 -135L96 -131L97 -126L100 -123L94 -112L94 -106L93 -107L93 -105L89 -103L91 -101L90 -99L95 -96L111 -92L113 -91L112 -90L115 -93L119 -91L121 -93L122 -92L120 -95L121 -96L120 -95L118 -99L121 -105L125 -105L129 -116L134 -117L133 -118L135 -121L137 -119L143 -127L152 -126L155 -131L159 -133L161 -137L158 -137L156 -142L150 -141L149 -143L148 -142L142 -145L141 -148L145 -152L143 -158L144 -159L142 -160L143 -163L139 -163L136 -160L137 -159L133 -162L129 -163L125 -161L124 -163L123 -162L121 -164L121 -167L123 -167L121 -172L129 -177L126 -180L126 -182L128 -184L130 -183L134 -188L137 -187L135 -190L137 -190L137 -192L140 -193L141 -190L146 -186L153 -185zM149 -173L142 -172L145 -166L144 -165L146 -163L149 -164L149 -172zM159 -158L154 -158L158 -158zM176 -153L176 -152z" id="河北省"/><path class="leaflet-interactive" stroke="#3388ff" stroke-opacity="0" stroke-width="3" stroke-linecap="round" stroke-linejoin="round" fill="#eee" fill-opacity="0.5" fill-rule="evenodd" d="M39 -62L42 -61L46 -63L47 -62L52 -66L59 -66L62 -71L66 -71L66 -75L80 -74L81 -77L84 -76L84 -78L90 -80L90 -83L92 -83L91 -86L93 -90L93 -97L89 -103L93 -105L93 -107L94 -106L94 -112L100 -123L97 -126L96 -131L90 -135L90 -140L91 -143L95 -145L94 -150L96 -152L104 -152L103 -153L105 -155L105 -159L107 -162L104 -164L104 -168L96 -171L99 -175L104 -176L106 -178L102 -180L100 -186L98 -182L94 -182L91 -178L83 -179L80 -178L79 -175L72 -177L68 -173L65 -165L62 -162L58 -164L55 -160L51 -158L53 -156L51 -151L49 -150L50 -149L47 -142L48 -140L42 -134L41 -130L46 -121L43 -117L43 -113L39 -109L41 -101L40 -93L43 -81L41 -76L39 -75L37 -68L38 -62z" id="山西省"/><path class="leaflet-interactive" stroke="#3388ff" stroke-opacity="0" stroke-width="3" stroke-linecap="round" stroke-linejoin="round" fill="#eee" fill-opacity="0.5" fill-rule="evenodd" d="M-173 -231L-162 -206L-166 -202L-160 -194L-154 -190L-154 -183L-150 -185L-151 -187L-149 -187L-147 -184L-147 -186L-144 -188L-142 -185L-141 -189L-135 -189L-133 -191L-126 -190L-124 -186L-125 -177L-128 -175L-130 -171L-137 -169L-130 -168L-124 -164L-120 -160L-120 -158L-114 -159L-114 -150L-108 -151L-108 -147L-106 -147L-107 -146L-99 -143L-94 -148L-98 -152L-90 -155L-79 -152L-72 -158L-66 -160L-62 -159L-63 -156L-60 -150L-66 -143L-73 -138L-71 -133L-74 -130L-73 -127L-62 -119L-58 -118L-56 -120L-50 -120L-42 -124L-38 -123L-34 -127L-35 -133L-33 -136L-34 -137L-33 -145L-31 -147L-32 -148L-30 -152L-26 -154L-27 -156L-23 -156L-21 -158L-18 -157L-16 -149L-20 -144L-23 -136L-16 -132L-11 -132L-6 -127L1 -125L1 -122L13 -123L14 -131L16 -128L18 -130L16 -134L17 -137L24 -146L26 -146L31 -153L32 -152L32 -156L37 -156L35 -159L36 -160L39 -157L42 -158L43 -156L45 -156L47 -160L50 -162L52 -162L50 -159L51 -158L55 -159L57 -164L60 -164L62 -162L65 -165L68 -173L72 -177L79 -175L82 -179L86 -180L87 -178L90 -178L94 -181L99 -182L98 -184L100 -187L98 -189L99 -191L96 -194L96 -196L98 -196L98 -198L96 -198L96 -202L98 -204L101 -203L101 -209L107 -217L112 -216L111 -215L113 -211L111 -205L119 -205L119 -207L127 -212L131 -209L136 -214L136 -212L143 -213L143 -217L145 -219L144 -222L146 -224L152 -224L154 -227L158 -227L162 -223L162 -219L164 -217L163 -216L165 -215L164 -214L167 -214L167 -210L164 -209L168 -199L176 -200L180 -198L185 -202L185 -205L183 -206L184 -216L182 -218L186 -222L190 -218L192 -218L193 -212L196 -207L200 -214L201 -213L201 -215L208 -220L210 -219L216 -224L220 -225L221 -223L227 -229L230 -230L232 -228L234 -230L232 -231L233 -232L238 -231L240 -229L242 -231L243 -230L246 -232L245 -233L248 -236L253 -237L254 -244L249 -245L247 -248L250 -248L249 -249L251 -249L251 -251L248 -258L249 -261L244 -267L245 -269L243 -269L235 -263L232 -263L230 -270L228 -271L229 -274L227 -278L230 -287L226 -292L226 -296L221 -297L223 -299L224 -304L231 -299L234 -301L234 -298L235 -299L238 -296L238 -299L240 -301L239 -305L245 -308L242 -317L246 -317L248 -319L253 -320L253 -322L250 -323L251 -325L247 -327L249 -325L248 -323L246 -323L245 -320L243 -320L241 -322L241 -326L239 -326L240 -328L236 -330L233 -334L236 -340L245 -345L247 -349L251 -351L261 -362L263 -363L266 -355L265 -353L267 -353L267 -364L269 -367L268 -369L272 -375L272 -379L278 -379L278 -391L165 -391L160 -388L149 -391L139 -391L131 -370L127 -364L127 -357L122 -354L123 -349L129 -343L134 -347L137 -346L143 -348L152 -342L159 -351L164 -352L171 -350L174 -345L180 -342L181 -339L184 -338L183 -337L187 -334L187 -332L190 -331L193 -324L193 -320L189 -317L184 -317L181 -319L180 -318L178 -321L173 -319L167 -320L157 -315L154 -317L152 -312L144 -312L139 -310L134 -302L134 -298L130 -296L128 -293L120 -289L107 -289L105 -285L92 -274L79 -277L75 -279L73 -282L67 -282L62 -280L56 -265L65 -254L64 -250L50 -243L39 -230L36 -228L32 -228L26 -224L18 -224L15 -222L5 -224L0 -222L-7 -224L-35 -213L-47 -205L-55 -206L-55 -211L-65 -209L-84 -217L-94 -219L-99 -225L-122 -229L-135 -226L-157 -228L-171 -231z" id="内蒙古自治区"/><path class="leaflet-interactive" stroke="#3388ff" stroke-opacity="0" stroke-width="3" stroke-linecap="round" stroke-linejoin="round" fill="#eee" fill-opacity="0.5" fill-rule="evenodd" d="M251 -167L261 -166L261 -168L267 -176L279 -185L286 -187L284 -191L287 -194L287 -196L283 -202L282 -207L280 -207L279 -210L279 -213L283 -217L279 -217L280 -218L277 -221L278 -222L274 -228L275 -230L272 -233L273 -237L271 -238L269 -234L266 -232L263 -241L254 -246L255 -245L252 -236L248 -236L245 -234L243 -230L242 -231L240 -229L235 -232L232 -231L232 -228L230 -230L225 -229L224 -225L221 -223L216 -224L211 -219L209 -220L202 -216L202 -214L198 -212L199 -211L196 -209L196 -207L192 -217L186 -222L182 -218L184 -216L183 -207L185 -202L177 -193L178 -192L176 -189L179 -185L181 -186L180 -184L182 -184L182 -182L186 -183L188 -181L188 -176L192 -171L202 -175L204 -181L209 -186L211 -186L210 -187L213 -190L223 -190L225 -186L228 -185L231 -181L225 -176L225 -173L218 -167L218 -163L214 -161L214 -159L219 -156L222 -158L220 -156L220 -152L221 -153L212 -149L212 -144L216 -147L217 -146L219 -148L222 -148L221 -149L223 -151L224 -149L224 -151L226 -151L228 -155L240 -163L245 -164L247 -166L251 -166zM237 -156L235 -157L237 -156zM231 -154L232 -154zM237 -155L238 -154L237 -155zM238 -151L239 -150L238 -151zM243 -162L243 -161zM234 -155L235 -155zM207 -181L208 -182L207 -181zM244 -159L243 -160zM245 -151L246 -152L245 -151zM254 -166L254 -166z" id="辽宁省"/><path class="leaflet-interactive" stroke="#3388ff" stroke-opacity="0" stroke-width="3" stroke-linecap="round" stroke-linejoin="round" fill="#eee" fill-opacity="0.5" fill-rule="evenodd" d="M349 -223L351 -224L352 -227L351 -228L352 -233L354 -235L353 -236L359 -233L359 -229L362 -226L363 -227L365 -223L365 -228L362 -230L370 -233L370 -245L361 -251L361 -259L356 -254L354 -258L352 -257L352 -255L348 -255L345 -253L343 -254L343 -249L338 -247L336 -248L334 -254L335 -255L333 -255L330 -261L331 -265L329 -269L326 -267L326 -265L324 -265L324 -261L319 -259L314 -269L316 -271L307 -271L308 -280L305 -284L303 -283L303 -285L300 -286L293 -283L286 -288L285 -292L280 -289L276 -289L275 -292L273 -293L273 -290L265 -290L259 -297L260 -301L258 -301L258 -310L252 -308L246 -310L244 -306L239 -305L240 -301L237 -296L237 -298L234 -298L234 -300L232 -301L231 -299L224 -304L223 -303L223 -299L221 -297L226 -296L226 -292L229 -290L230 -285L228 -283L227 -278L229 -275L228 -272L230 -270L231 -263L237 -264L243 -269L245 -269L244 -268L249 -261L248 -258L251 -251L251 -249L249 -249L250 -248L248 -248L248 -246L251 -244L254 -244L254 -246L256 -246L257 -243L263 -240L265 -237L264 -235L266 -235L266 -233L268 -233L269 -236L273 -238L272 -233L275 -230L274 -229L278 -223L277 -221L280 -218L279 -217L283 -217L279 -213L279 -210L280 -207L282 -207L283 -202L287 -196L287 -194L284 -191L286 -189L292 -192L299 -201L300 -206L302 -208L304 -207L306 -210L310 -203L316 -201L322 -202L325 -201L324 -200L327 -202L328 -206L325 -209L325 -213L323 -214L337 -214L342 -218L345 -224L348 -222z" id="吉林省"/><path class="leaflet-interactive" stroke="#3388ff" stroke-opacity="0" stroke-width="3" stroke-linecap="round" stroke-linejoin="round" fill="#eee" fill-opacity="0.5" fill-rule="evenodd" d="M252 -308L258 -310L258 -301L260 -301L259 -297L267 -290L273 -290L273 -292L275 -292L276 -289L280 -289L285 -292L287 -287L293 -283L299 -286L303 -285L303 -283L305 -284L308 -280L307 -271L316 -271L316 -263L319 -260L324 -260L324 -265L326 -265L326 -267L329 -269L331 -266L330 -261L333 -255L335 -255L334 -254L337 -247L343 -249L343 -254L344 -253L347 -255L351 -255L353 -258L355 -258L356 -254L361 -259L361 -251L370 -245L370 -347L366 -351L369 -358L367 -360L368 -362L366 -362L364 -365L366 -371L360 -371L353 -377L351 -382L349 -382L346 -386L345 -383L342 -385L341 -383L339 -386L336 -386L336 -388L332 -390L324 -388L318 -391L278 -391L278 -379L273 -379L268 -369L269 -367L267 -364L267 -353L265 -353L266 -354L264 -357L264 -363L261 -362L252 -351L247 -349L245 -345L236 -340L235 -336L233 -335L235 -331L240 -328L239 -325L241 -326L241 -322L243 -320L245 -320L249 -324L247 -327L251 -325L250 -323L253 -323L252 -319L242 -317L245 -310L252 -308z" id="黑龙江省"/><path class="leaflet-interactive" stroke="#3388ff" stroke-opacity="0" stroke-width="3" stroke-linecap="round" stroke-linejoin="round" fill="#eee" fill-opacity="0.5" fill-rule="evenodd" d="M209 7L212 11L216 13L219 11L226 10L226 6L217 -2L213 -1L213 2L211 3L212 4L209 5zM226 -4L215 -9L213 -9L212 -7L216 -3L217 -4L223 -1L226 -2zM223 1L219 -2L223 1zM223 1L228 1L223 0zM220 -1L220 -2zM225 3L226 3zM224 3L225 3z" id="上海市"/><path class="leaflet-interactive" stroke="#3388ff" stroke-opacity="0" stroke-width="3" stroke-linecap="round" stroke-linejoin="round" fill="#eee" fill-opacity="0.5" fill-rule="evenodd" d="M151 -61L149 -58L148 -63L147 -62L143 -69L136 -67L136 -63L140 -59L145 -58L147 -54L146 -53L148 -53L149 -51L155 -51L158 -48L158 -45L165 -45L164 -40L162 -39L161 -36L163 -34L165 -35L168 -25L173 -25L176 -30L178 -30L182 -25L182 -23L179 -20L175 -23L171 -23L173 -21L173 -17L170 -15L168 -11L170 -7L173 -6L172 -5L176 -5L176 0L174 0L175 3L183 2L188 5L193 4L202 12L206 9L205 8L209 7L209 5L212 4L212 0L216 -2L213 -9L226 -4L224 -11L218 -15L217 -20L210 -23L208 -35L200 -54L196 -58L191 -59L186 -63L187 -64L181 -67L183 -72L177 -70L173 -63L169 -63L169 -58L166 -57L163 -63L159 -63L159 -61L155 -59L151 -61z" id="江苏省"/><path class="leaflet-interactive" stroke="#3388ff" stroke-opacity="0" stroke-width="3" stroke-linecap="round" stroke-linejoin="round" fill="#eee" fill-opacity="0.5" fill-rule="evenodd" d="M169 57L173 57L175 59L174 64L177 72L182 73L184 71L185 72L186 69L188 69L191 75L195 75L198 73L202 78L205 74L204 71L206 68L209 65L213 66L212 67L213 64L210 64L211 61L212 60L213 62L219 57L221 57L221 53L219 51L221 50L221 47L223 47L220 42L223 41L224 43L226 43L226 33L224 33L228 28L221 25L211 15L215 13L212 10L211 11L209 7L207 7L202 12L200 8L198 9L192 4L190 4L188 5L186 13L182 15L184 19L177 19L174 31L170 35L165 37L165 39L163 39L163 43L169 51L170 57zM229 26L232 27L226 22L225 23L228 26zM230 22L229 23zM230 31L231 32L230 31zM233 12L235 13L234 12zM229 20L227 20L230 22L229 19zM231 21L232 21zM227 41L227 41zM232 28L233 29L233 27L232 28zM233 18L232 18zM224 49L224 48zM231 29L230 30L232 29zM223 43L223 43zM214 70L214 69zM225 11L228 15L226 11zM225 54L224 54zM229 32L230 31L228 30L227 31L229 32zM234 27L234 27zM236 14L235 14zM224 55L225 54zM227 23L227 23zM233 26L232 26zM224 26L224 24L224 26zM211 72L212 73L211 72zM226 41L226 41zM227 30L227 31zM225 24L226 24zM226 21L225 20zM229 27L229 27zM231 31L230 31zM212 67L212 67zM239 23L239 23zM231 21L231 21zM231 28L231 28zM239 13L239 13zM212 64L213 63L211 64zM213 63L213 63zM234 27L234 27zM240 13L239 13zM230 26L230 27zM227 27L227 27zM211 63L211 63zM234 27L234 27zM229 26L229 26z" id="浙江省"/><path class="leaflet-interactive" stroke="#3388ff" stroke-opacity="0" stroke-width="3" stroke-linecap="round" stroke-linejoin="round" fill="#eee" fill-opacity="0.5" fill-rule="evenodd" d="M139 -50L140 -48L132 -44L128 -51L124 -51L124 -42L121 -42L119 -39L119 -34L116 -32L114 -32L113 -34L112 -33L112 -30L117 -28L117 -24L119 -22L120 -23L124 -19L128 -22L128 -7L127 -8L123 -6L120 -3L120 1L123 5L124 3L126 5L128 4L131 8L129 8L126 13L128 15L128 19L131 22L131 26L134 30L139 28L139 25L141 24L144 27L140 33L141 34L147 32L147 29L149 27L153 29L152 30L155 34L163 34L164 37L167 37L167 35L170 35L176 28L175 27L177 25L177 19L185 19L183 18L184 16L182 16L184 13L186 13L189 5L183 2L174 2L174 0L176 0L176 -5L172 -5L173 -6L170 -7L170 -9L168 -10L168 -13L173 -17L173 -21L171 -23L177 -23L176 -22L179 -20L182 -23L182 -25L178 -30L176 -30L173 -25L168 -25L166 -33L163 -33L161 -35L165 -44L164 -46L158 -44L158 -48L156 -51L149 -51L145 -58L140 -59L136 -63L132 -59L139 -55L139 -50zM176 -3L176 -3zM141 31L141 32zM122 -21L122 -21z" id="安徽省"/><path class="leaflet-interactive" stroke="#3388ff" stroke-opacity="0" stroke-width="3" stroke-linecap="round" stroke-linejoin="round" fill="#eee" fill-opacity="0.5" fill-rule="evenodd" d="M178 117L176 115L178 115L177 112L180 115L180 113L181 114L183 112L180 110L182 108L186 110L187 109L189 111L189 109L192 109L191 106L189 106L189 108L186 105L190 99L188 97L189 95L193 93L191 88L187 88L189 86L193 87L193 85L195 85L191 89L192 90L196 88L197 85L195 83L202 78L198 73L196 73L195 75L190 75L187 69L185 72L184 71L182 73L177 73L174 64L174 57L167 59L168 60L158 66L155 63L150 65L150 68L146 70L149 76L144 81L143 80L140 82L138 86L138 89L140 91L138 91L136 95L138 97L134 101L132 101L133 103L130 106L130 110L127 113L129 116L128 117L134 120L136 119L138 124L142 122L143 123L143 127L146 131L146 138L149 142L153 142L155 139L156 140L157 136L159 136L163 130L165 130L163 127L164 124L168 125L169 123L171 125L175 121L172 120L177 119L178 117zM169 125L167 127L169 127L169 125zM186 113L187 114L185 113zM187 105L187 105zM194 95L194 95zM166 127L166 126zM193 86L193 86zM165 125L164 124L163 126L165 126zM193 96L193 96zM188 96L188 96zM195 90L195 90zM189 105L190 105zM190 88L191 87zM196 89L197 88L196 89zM200 82L199 82zM197 84L196 85L197 84zM189 88L189 87z" id="福建省"/><path class="leaflet-interactive" stroke="#3388ff" stroke-opacity="0" stroke-width="3" stroke-linecap="round" stroke-linejoin="round" fill="#eee" fill-opacity="0.5" fill-rule="evenodd" d="M165 37L163 34L155 34L152 30L153 29L149 27L147 29L147 32L141 34L140 33L144 28L144 26L143 27L141 24L139 28L134 30L133 29L127 31L125 29L122 29L119 33L116 32L115 35L114 34L111 36L113 35L113 37L103 38L97 43L97 45L100 48L100 55L102 55L102 57L98 60L98 62L93 65L94 66L91 70L91 75L96 74L94 78L96 81L95 87L99 89L97 95L101 95L101 97L99 97L96 103L98 112L105 111L106 109L110 112L102 122L100 122L104 124L104 126L106 124L109 125L118 121L126 125L127 124L126 119L128 119L129 116L127 113L130 111L130 107L133 103L132 102L138 97L136 93L140 91L138 87L141 81L147 79L147 69L149 69L151 67L150 65L154 63L157 66L161 63L168 61L170 54L168 48L162 41L165 38z" id="江西省"/><path class="leaflet-interactive" stroke="#3388ff" stroke-opacity="0" stroke-width="3" stroke-linecap="round" stroke-linejoin="round" fill="#eee" fill-opacity="0.5" fill-rule="evenodd" d="M136 -63L137 -68L143 -69L146 -66L145 -65L147 -64L147 -62L148 -63L149 -58L151 -61L153 -59L157 -61L159 -60L159 -63L163 -63L163 -61L165 -61L165 -57L168 -58L171 -64L175 -64L174 -65L177 -71L185 -72L189 -81L191 -81L193 -85L194 -84L195 -87L199 -89L197 -89L197 -93L199 -93L199 -90L204 -91L206 -99L208 -99L208 -97L210 -99L210 -101L208 -101L209 -102L212 -101L216 -104L217 -103L219 -106L218 -105L221 -104L221 -106L227 -109L227 -107L228 -108L230 -106L234 -108L235 -107L236 -110L234 -110L234 -112L236 -112L236 -117L238 -117L230 -119L229 -118L228 -121L226 -119L219 -118L216 -122L213 -121L212 -124L206 -126L198 -123L199 -122L197 -119L193 -118L190 -112L183 -112L180 -115L179 -114L177 -119L178 -122L183 -123L183 -126L180 -127L178 -132L173 -133L171 -131L160 -135L157 -131L155 -131L152 -126L143 -126L137 -119L135 -121L133 -117L129 -116L125 -105L122 -105L118 -99L122 -92L119 -88L119 -85L127 -90L128 -89L131 -91L131 -89L128 -89L127 -86L122 -84L118 -78L116 -78L113 -75L113 -73L111 -73L111 -70L115 -70L121 -66L122 -61L135 -62zM206 -129L206 -128zM205 -129L206 -129zM210 -98L209 -98zM206 -133L206 -134zM209 -137L209 -137zM197 -85L197 -85zM204 -129L204 -129zM207 -135L207 -136zM218 -121L218 -121zM218 -121L218 -121zM218 -121L218 -121zM122 -87L122 -87z" id="山东省"/><path class="leaflet-interactive" stroke="#3388ff" stroke-opacity="0" stroke-width="3" stroke-linecap="round" stroke-linejoin="round" fill="#eee" fill-opacity="0.5" fill-rule="evenodd" d="M77 -18L85 -20L88 -17L93 -20L93 -14L95 -9L97 -9L97 -7L100 -9L102 -7L106 -7L107 -3L108 -4L111 -1L118 -3L117 -2L119 0L123 -6L128 -8L128 -23L124 -19L117 -23L117 -27L112 -30L112 -32L113 -34L116 -32L119 -34L119 -40L123 -42L124 -51L126 -52L130 -49L132 -45L134 -45L140 -48L138 -52L139 -55L133 -57L133 -60L131 -62L122 -61L121 -66L116 -70L112 -70L111 -73L113 -73L114 -77L119 -79L122 -84L128 -86L131 -92L130 -90L119 -85L119 -88L122 -92L121 -93L119 -91L115 -93L112 -90L112 -92L104 -93L102 -95L101 -94L98 -95L99 -96L94 -97L92 -93L92 -83L90 -83L91 -82L89 -80L84 -78L84 -76L81 -77L80 -74L66 -75L66 -71L62 -71L57 -66L53 -66L42 -61L39 -62L41 -57L40 -56L43 -53L43 -48L49 -42L49 -36L52 -33L52 -31L54 -31L53 -29L59 -23L60 -24L68 -19L76 -19zM94 -17L94 -17z" id="河南省"/><path class="leaflet-interactive" stroke="#3388ff" stroke-opacity="0" stroke-width="3" stroke-linecap="round" stroke-linejoin="round" fill="#eee" fill-opacity="0.5" fill-rule="evenodd" d="M50 -34L49 -36L43 -33L43 -36L41 -34L34 -34L28 -36L24 -34L30 -32L29 -29L33 -29L36 -27L35 -26L37 -24L34 -22L27 -23L25 -18L27 -16L27 -6L29 -6L29 -4L36 1L36 9L35 11L33 9L28 11L23 17L22 15L20 16L18 14L15 15L15 17L11 15L12 16L8 17L10 21L10 26L7 29L9 31L11 28L12 31L16 33L15 36L17 38L18 37L21 42L25 33L28 33L30 30L36 30L39 33L44 30L41 25L44 24L53 25L56 28L62 27L70 34L76 33L79 30L80 32L82 30L82 32L80 33L81 36L83 36L91 29L90 32L92 32L92 35L94 36L91 40L93 40L92 41L97 44L97 42L102 40L102 38L112 37L113 36L111 36L113 34L116 35L116 33L121 31L121 29L127 31L132 29L131 22L128 20L129 18L126 13L128 11L127 10L131 7L126 5L125 3L123 4L116 -4L111 -1L108 -4L107 -3L107 -7L103 -7L100 -9L98 -7L93 -13L94 -18L92 -20L88 -17L82 -20L78 -18L71 -18L60 -24L59 -23L53 -29L54 -30L51 -34zM19 15L19 15zM50 -35L50 -34zM77 -18L77 -18zM80 30L80 30z" id="湖北省"/><path class="leaflet-interactive" stroke="#3388ff" stroke-opacity="0" stroke-width="3" stroke-linecap="round" stroke-linejoin="round" fill="#eee" fill-opacity="0.5" fill-rule="evenodd" d="M66 121L67 119L68 120L68 113L73 113L77 115L78 118L80 118L82 117L82 113L79 112L86 107L91 111L94 111L96 109L98 97L99 98L101 96L97 95L99 89L95 87L96 81L94 79L96 74L92 75L91 70L94 66L93 65L98 61L98 59L99 60L102 55L100 55L101 54L99 52L100 47L98 45L97 46L97 44L92 41L93 40L91 40L94 36L92 35L92 32L90 32L91 29L83 36L81 36L80 33L82 32L82 30L80 32L80 30L70 35L65 29L57 27L56 28L53 25L45 24L41 25L41 28L44 30L41 32L39 33L36 30L30 30L28 33L24 35L21 41L22 49L20 51L22 51L22 65L25 71L19 73L15 81L17 79L20 80L25 78L26 82L24 83L26 85L22 87L24 89L22 93L25 93L24 97L27 98L29 100L28 101L30 101L33 95L34 98L39 99L39 97L43 93L53 93L54 98L52 100L55 100L56 103L54 104L54 109L49 114L49 116L50 118L54 114L57 117L57 123L59 123L61 120L65 121zM26 85L26 85z" id="湖南省"/><path class="leaflet-interactive" stroke="#3388ff" stroke-opacity="0" stroke-width="3" stroke-linecap="round" stroke-linejoin="round" fill="#eee" fill-opacity="0.5" fill-rule="evenodd" d="M91 166L93 156L96 161L104 159L106 162L108 160L106 158L109 156L110 159L112 159L116 155L123 158L124 156L122 156L124 154L127 156L134 153L138 153L139 150L144 145L144 143L149 142L145 136L146 131L143 127L143 123L142 122L138 124L136 120L137 119L133 120L128 118L126 120L127 123L125 125L120 120L112 124L106 124L105 126L100 122L102 122L110 112L106 109L104 111L98 112L97 109L95 111L92 111L86 107L79 112L82 113L81 118L78 118L76 114L69 113L67 117L68 120L67 119L64 123L66 125L66 129L63 130L65 135L63 135L62 138L59 138L60 139L55 146L55 154L44 161L45 164L43 167L39 167L40 171L32 172L32 175L29 176L32 179L29 181L28 188L29 190L40 190L36 188L38 185L46 180L54 178L53 179L55 179L59 177L60 178L61 176L63 177L66 173L74 174L78 171L80 172L83 167L86 172L90 168L90 166zM146 144L145 145L148 144L146 144zM79 174L80 173L77 175L78 177L79 174zM74 176L76 175L74 176zM101 169L103 169L101 169zM40 184L42 185L43 183L40 183zM72 175L73 175zM42 185L38 185L37 187L42 188L42 186zM94 170L93 169zM93 171L93 170zM84 172L84 172zM95 162L94 162zM101 170L101 169zM100 170L100 170zM143 190L143 190zM82 172L82 172zM44 188L42 188L44 188zM129 185L131 185L129 184zM129 187L130 188L129 187zM127 157L127 157zM127 157L127 157z" id="广东省"/><path class="leaflet-interactive" stroke="#3388ff" stroke-opacity="0" stroke-width="3" stroke-linecap="round" stroke-linejoin="round" fill="#eee" fill-opacity="0.5" fill-rule="evenodd" d="M25 98L22 103L23 104L17 103L16 104L18 103L18 107L14 107L14 105L12 106L11 111L9 108L8 109L6 107L3 110L4 111L-1 115L-3 114L-3 112L-4 113L-4 111L-7 113L-7 111L-12 106L-16 109L-15 112L-28 117L-28 121L-31 123L-44 117L-51 123L-55 121L-55 125L-52 129L-51 126L-45 127L-43 133L-42 132L-39 134L-39 132L-37 132L-37 134L-33 134L-32 132L-28 136L-29 142L-31 144L-34 143L-39 148L-38 151L-37 150L-33 153L-21 153L-18 156L-22 160L-22 163L-20 164L-20 170L-16 170L-12 174L-6 176L-2 175L3 178L5 176L4 178L9 177L11 175L19 177L18 178L20 180L27 178L29 179L33 171L39 171L39 167L44 166L44 161L55 154L55 146L57 141L59 141L60 137L62 138L62 136L65 135L63 131L66 128L66 125L64 123L66 121L61 120L58 123L56 122L57 116L55 114L51 118L49 117L57 101L53 100L54 95L49 93L50 92L48 92L48 94L42 94L39 97L39 99L34 98L35 96L33 95L30 101L28 101L29 100L27 98L25 99zM-46 118L-46 118zM19 186L19 186z" id="广西壮族自治区"/><path class="leaflet-interactive" stroke="#3388ff" stroke-opacity="0" stroke-width="3" stroke-linecap="round" stroke-linejoin="round" fill="#eee" fill-opacity="0.5" fill-rule="evenodd" d="M0 0" id="海南省"/><path class="leaflet-interactive" stroke="#3388ff" stroke-opacity="0" stroke-width="3" stroke-linecap="round" stroke-linejoin="round" fill="#eee" fill-opacity="0.5" fill-rule="evenodd" d="M-25 53L-23 53L-23 47L-21 50L-22 53L-20 54L-17 48L-16 49L-13 46L-11 49L-8 46L-9 41L-6 40L-6 42L-3 41L-1 45L6 43L6 50L10 51L10 56L11 57L11 54L13 54L13 58L17 60L20 54L22 54L22 52L20 52L22 50L22 44L19 38L15 36L16 33L14 33L11 28L10 31L8 31L10 26L10 21L8 17L12 16L11 15L15 17L15 15L17 14L19 14L19 16L22 14L23 16L32 9L35 11L35 0L32 -3L29 -3L28 -6L23 -6L13 -14L7 -15L7 -11L5 -11L10 -5L8 -5L7 -2L5 -2L-1 11L-3 11L-3 9L-8 12L-7 15L-14 25L-20 25L-21 20L-28 22L-28 20L-33 18L-35 19L-39 23L-35 26L-35 28L-38 29L-42 36L-36 40L-33 46L-30 45L-27 47L-26 53zM19 15L19 15zM-38 24L-38 23zM19 15L19 15zM-14 25L-14 25z" id="重庆市"/><path class="leaflet-interactive" stroke="#3388ff" stroke-opacity="0" stroke-width="3" stroke-linecap="round" stroke-linejoin="round" fill="#eee" fill-opacity="0.5" fill-rule="evenodd" d="M-109 77L-108 81L-105 84L-106 85L-104 85L-105 88L-101 92L-101 95L-100 94L-98 97L-94 98L-89 93L-86 92L-85 95L-79 92L-81 76L-80 73L-78 73L-71 66L-70 63L-72 62L-72 60L-66 57L-66 50L-64 52L-56 51L-59 54L-59 56L-56 59L-57 64L-54 66L-51 64L-50 65L-46 61L-44 61L-42 67L-43 68L-39 67L-37 69L-26 66L-28 60L-33 61L-33 58L-37 57L-37 53L-35 51L-34 52L-32 49L-25 54L-27 47L-31 45L-33 46L-35 44L-36 39L-39 40L-42 35L-42 33L-35 28L-35 26L-38 23L-34 18L-28 20L-28 22L-22 20L-20 25L-18 26L-15 24L-14 25L-7 15L-8 12L-3 9L-3 11L-1 11L3 3L2 2L5 -1L4 -2L7 -2L7 -4L10 -5L10 -7L5 -11L7 -11L6 -12L8 -14L7 -15L9 -15L9 -17L1 -15L-5 -20L-7 -19L-8 -22L-11 -19L-14 -22L-14 -25L-19 -26L-24 -23L-30 -26L-30 -28L-38 -25L-40 -29L-42 -24L-52 -24L-59 -28L-59 -30L-56 -31L-58 -31L-57 -37L-59 -37L-61 -41L-60 -42L-62 -44L-67 -43L-70 -45L-71 -44L-71 -46L-77 -46L-76 -52L-80 -54L-80 -56L-82 -56L-89 -49L-93 -50L-91 -47L-92 -46L-90 -45L-90 -42L-88 -42L-88 -40L-90 -38L-91 -39L-92 -35L-93 -36L-98 -33L-98 -42L-101 -38L-101 -34L-105 -34L-107 -36L-110 -35L-110 -29L-108 -28L-109 -24L-110 -25L-112 -23L-117 -25L-116 -24L-118 -22L-121 -26L-123 -26L-124 -23L-130 -32L-132 -26L-138 -29L-139 -28L-140 -31L-148 -36L-147 -38L-150 -42L-149 -43L-153 -47L-153 -51L-163 -54L-166 -48L-170 -48L-169 -42L-167 -42L-168 -41L-165 -39L-165 -37L-168 -34L-167 -31L-170 -29L-170 -27L-167 -23L-156 -18L-153 -12L-153 -8L-146 -1L-147 3L-149 1L-150 4L-148 5L-147 9L-144 12L-144 32L-142 40L-142 49L-139 59L-137 57L-137 53L-132 47L-132 49L-126 55L-127 56L-125 56L-127 60L-123 67L-122 68L-120 65L-119 66L-117 64L-111 77L-109 77zM-27 22L-27 22zM-15 24L-15 24zM-38 22L-38 22z" id="四川省"/><path class="leaflet-interactive" stroke="#3388ff" stroke-opacity="0" stroke-width="3" stroke-linecap="round" stroke-linejoin="round" fill="#eee" fill-opacity="0.5" fill-rule="evenodd" d="M22 54L20 54L17 60L14 58L13 59L13 54L11 54L12 57L10 56L11 52L6 50L7 45L4 43L-1 45L-2 42L-6 42L-6 40L-9 41L-8 45L-11 49L-11 47L-13 46L-16 49L-18 49L-17 50L-19 54L-22 54L-21 51L-23 47L-23 53L-25 52L-25 54L-31 49L-33 52L-36 53L-36 58L-35 57L-31 61L-27 61L-27 67L-37 69L-41 67L-43 73L-49 75L-55 75L-55 73L-57 72L-59 76L-64 73L-69 80L-67 81L-67 88L-63 90L-61 87L-58 88L-57 86L-53 90L-58 105L-56 107L-57 108L-54 107L-55 110L-54 109L-50 113L-52 113L-52 117L-55 120L-54 122L-51 123L-45 117L-43 117L-31 123L-28 119L-29 117L-17 113L-15 110L-16 109L-12 106L-7 112L-4 111L-4 113L-3 112L-1 115L3 113L3 110L6 107L11 110L13 105L18 108L18 103L16 103L17 104L19 102L22 104L25 98L25 93L22 94L22 91L24 89L22 87L26 82L24 78L21 78L20 80L17 79L15 81L14 79L19 75L19 73L21 73L25 69L22 65L23 58L21 54zM25 84L26 85L24 83L25 84zM26 85L26 86z" id="贵州省"/><path class="leaflet-interactive" stroke="#3388ff" stroke-opacity="0" stroke-width="3" stroke-linecap="round" stroke-linejoin="round" fill="#eee" fill-opacity="0.5" fill-rule="evenodd" d="M-42 68L-44 61L-54 66L-57 62L-56 59L-59 56L-59 54L-56 51L-64 52L-66 50L-67 53L-65 57L-71 60L-71 66L-78 74L-81 75L-79 92L-85 95L-86 92L-92 95L-94 98L-98 98L-102 94L-102 91L-105 89L-103 85L-104 86L-109 80L-117 64L-123 68L-127 61L-125 57L-132 49L-132 47L-136 51L-138 59L-141 55L-142 41L-144 41L-145 48L-147 44L-149 45L-150 53L-148 59L-151 59L-153 61L-156 56L-158 60L-155 71L-154 72L-153 69L-148 72L-149 77L-147 80L-147 88L-149 95L-148 96L-151 97L-148 101L-151 102L-155 107L-156 106L-158 108L-157 109L-164 115L-163 119L-167 121L-167 126L-165 126L-164 128L-164 132L-167 135L-165 137L-156 132L-145 133L-149 136L-149 138L-147 138L-147 144L-145 144L-145 148L-140 151L-135 151L-135 153L-137 153L-136 155L-138 156L-138 161L-141 166L-138 168L-128 168L-129 172L-127 175L-125 175L-126 178L-122 177L-118 179L-110 173L-108 177L-108 183L-103 182L-100 184L-98 182L-100 181L-100 178L-98 176L-103 165L-99 160L-98 163L-95 161L-91 162L-87 156L-81 159L-79 162L-73 155L-71 159L-69 155L-64 161L-61 155L-59 155L-58 157L-52 155L-46 147L-45 148L-42 145L-38 149L-39 148L-34 143L-31 144L-29 142L-28 137L-32 132L-34 134L-37 134L-37 132L-41 134L-44 132L-43 131L-45 127L-53 127L-55 121L-52 117L-52 113L-50 114L-50 112L-54 109L-55 110L-54 107L-57 108L-56 107L-58 103L-57 104L-56 102L-57 100L-56 97L-55 98L-55 94L-52 92L-57 86L-58 88L-61 87L-63 90L-65 90L-68 85L-67 81L-70 80L-64 73L-60 76L-57 72L-55 75L-49 75L-46 73L-44 74L-42 69z" id="云南省"/><path class="leaflet-interactive" stroke="#3388ff" stroke-opacity="0" stroke-width="3" stroke-linecap="round" stroke-linejoin="round" fill="#eee" fill-opacity="0.5" fill-rule="evenodd" d="M-293 -91L-301 -95L-303 -94L-306 -97L-308 -95L-314 -99L-328 -96L-330 -98L-332 -96L-341 -95L-345 -93L-346 -94L-350 -91L-352 -86L-358 -84L-359 -82L-365 -85L-377 -81L-382 -77L-398 -77L-402 -80L-401 -81L-403 -83L-408 -84L-410 -84L-412 -80L-416 -78L-416 -76L-422 -74L-425 -74L-428 -77L-445 -77L-444 -74L-449 -70L-453 -59L-463 -59L-466 -56L-466 -54L-471 -51L-469 -47L-471 -43L-469 -43L-470 -41L-463 -34L-461 -26L-461 -22L-466 -18L-469 -20L-471 -25L-475 -22L-473 -17L-475 -15L-469 -10L-471 -8L-468 -4L-470 -2L-469 1L-464 7L-460 8L-459 6L-456 9L-453 8L-449 14L-441 18L-438 18L-432 23L-431 26L-429 26L-426 19L-427 18L-417 20L-416 19L-414 25L-407 28L-403 32L-402 31L-398 33L-392 41L-386 38L-383 39L-382 44L-381 43L-378 49L-376 49L-373 52L-369 52L-368 50L-366 51L-367 56L-365 58L-358 56L-353 63L-354 64L-352 64L-350 60L-348 64L-341 61L-335 66L-326 66L-308 61L-306 65L-308 73L-305 77L-302 75L-303 69L-301 66L-295 60L-292 59L-287 59L-282 62L-277 61L-273 65L-267 62L-265 63L-263 65L-264 66L-262 67L-263 71L-257 72L-255 74L-255 83L-237 83L-228 81L-225 75L-220 70L-211 68L-203 64L-203 62L-200 59L-194 57L-192 59L-188 59L-186 61L-185 60L-181 64L-176 65L-174 67L-171 64L-170 65L-169 62L-171 62L-171 60L-168 57L-167 53L-165 53L-163 57L-162 56L-159 58L-160 59L-157 60L-155 56L-154 61L-151 59L-150 60L-148 57L-150 54L-150 45L-148 44L-146 48L-144 47L-144 42L-142 40L-144 32L-143 25L-145 16L-144 12L-150 3L-149 1L-147 3L-146 0L-153 -8L-153 -12L-156 -18L-161 -21L-169 -23L-171 -21L-169 -18L-172 -15L-171 -14L-173 -12L-177 -13L-177 -11L-180 -12L-180 -8L-178 -6L-183 -6L-186 -10L-188 -10L-189 -4L-192 -8L-194 -8L-194 -6L-198 -8L-199 -7L-202 -10L-201 -15L-203 -14L-204 -17L-207 -18L-204 -19L-209 -19L-214 -24L-217 -22L-218 -23L-221 -20L-225 -20L-229 -23L-232 -21L-236 -24L-243 -26L-252 -25L-254 -29L-256 -27L-259 -30L-266 -33L-276 -33L-283 -36L-288 -41L-288 -44L-294 -50L-294 -52L-291 -53L-291 -59L-293 -63L-291 -68L-296 -68L-295 -71L-297 -77L-293 -79L-292 -87L-296 -86L-298 -88L-298 -90L-294 -91z" id="西藏自治区"/><path class="leaflet-interactive" stroke="#3388ff" stroke-opacity="0" stroke-width="3" stroke-linecap="round" stroke-linejoin="round" fill="#eee" fill-opacity="0.5" fill-rule="evenodd" d="M39 -62L37 -64L37 -67L43 -81L40 -93L41 -100L39 -110L41 -110L46 -120L41 -130L41 -134L47 -140L50 -147L49 -150L52 -152L52 -162L50 -162L43 -156L36 -160L35 -159L37 -156L31 -155L33 -154L28 -150L26 -146L24 -146L24 -144L22 -143L23 -142L20 -141L17 -137L16 -134L18 -131L16 -128L14 -131L14 -123L1 -122L2 -123L-1 -126L-5 -127L-4 -126L-7 -125L-10 -121L-10 -108L-1 -105L0 -102L5 -102L5 -100L12 -97L11 -94L13 -92L12 -89L9 -87L11 -76L4 -76L0 -74L-3 -76L-3 -71L-1 -69L-5 -68L-6 -69L-11 -67L-15 -71L-20 -72L-23 -70L-22 -65L-26 -61L-22 -60L-20 -57L-20 -55L-23 -56L-22 -52L-24 -46L-22 -42L-24 -41L-24 -43L-28 -41L-32 -43L-34 -38L-36 -38L-32 -34L-32 -32L-35 -29L-39 -29L-39 -27L-38 -25L-36 -25L-33 -28L-30 -28L-29 -25L-24 -23L-19 -26L-14 -25L-14 -22L-11 -19L-8 -22L-7 -19L-5 -19L1 -14L1 -16L9 -17L9 -15L22 -8L22 -6L27 -6L27 -16L25 -18L26 -21L29 -23L34 -22L37 -24L35 -28L29 -29L29 -33L24 -34L28 -36L34 -34L41 -34L42 -36L45 -33L50 -37L50 -40L43 -48L44 -53L40 -55L41 -58L39 -61zM50 -40L50 -40zM-30 -26L-30 -26z" id="陕西省"/><path class="leaflet-interactive" stroke="#3388ff" stroke-opacity="0" stroke-width="3" stroke-linecap="round" stroke-linejoin="round" fill="#eee" fill-opacity="0.5" fill-rule="evenodd" d="M-23 -84L-23 -77L-25 -74L-28 -78L-33 -78L-30 -79L-34 -79L-36 -83L-35 -84L-38 -84L-42 -87L-42 -90L-39 -91L-41 -99L-44 -102L-42 -106L-46 -110L-47 -109L-49 -113L-54 -114L-52 -118L-62 -119L-68 -125L-73 -127L-74 -130L-71 -133L-73 -138L-60 -149L-61 -154L-63 -156L-62 -159L-66 -160L-72 -158L-79 -152L-88 -155L-95 -153L-97 -152L-95 -148L-99 -143L-102 -143L-108 -147L-108 -151L-112 -149L-113 -151L-114 -150L-114 -159L-120 -158L-120 -160L-130 -168L-137 -169L-130 -171L-125 -177L-124 -186L-126 -190L-133 -191L-135 -189L-141 -189L-142 -186L-144 -188L-147 -186L-147 -184L-151 -187L-150 -185L-154 -183L-154 -190L-160 -194L-166 -202L-162 -206L-173 -231L-186 -230L-192 -225L-189 -218L-191 -217L-191 -212L-194 -210L-198 -210L-203 -206L-203 -204L-206 -209L-210 -207L-224 -195L-228 -185L-241 -183L-244 -174L-245 -164L-251 -153L-249 -151L-238 -154L-236 -148L-229 -149L-226 -144L-218 -145L-216 -137L-207 -138L-204 -136L-200 -136L-197 -138L-191 -133L-188 -133L-187 -135L-181 -134L-181 -140L-179 -140L-179 -142L-175 -142L-177 -148L-176 -155L-170 -154L-159 -146L-155 -149L-155 -151L-150 -149L-147 -152L-143 -150L-143 -148L-126 -134L-125 -136L-128 -139L-127 -140L-120 -135L-116 -135L-113 -132L-113 -130L-106 -125L-104 -127L-99 -123L-95 -123L-93 -120L-94 -119L-85 -111L-88 -111L-88 -109L-84 -105L-85 -102L-79 -94L-80 -87L-84 -86L-84 -83L-82 -81L-83 -80L-87 -81L-89 -78L-91 -78L-89 -73L-95 -68L-94 -67L-97 -67L-97 -62L-91 -57L-93 -55L-94 -56L-96 -52L-100 -52L-102 -54L-112 -57L-114 -57L-115 -55L-112 -49L-108 -46L-109 -43L-103 -44L-102 -40L-98 -42L-97 -41L-96 -39L-99 -36L-98 -33L-96 -35L-92 -35L-91 -39L-90 -38L-88 -40L-93 -49L-90 -49L-88 -52L-80 -56L-80 -54L-76 -52L-76 -46L-71 -46L-71 -44L-63 -44L-60 -42L-61 -41L-57 -37L-58 -31L-56 -31L-59 -30L-59 -28L-49 -23L-42 -24L-40 -26L-40 -29L-37 -28L-32 -31L-32 -35L-36 -38L-34 -38L-32 -42L-28 -41L-24 -43L-24 -41L-22 -41L-24 -48L-22 -52L-23 -55L-20 -56L-22 -60L-26 -60L-22 -65L-23 -70L-16 -71L-11 -67L-1 -69L-4 -74L-3 -75L9 -75L11 -77L9 -87L12 -88L12 -97L5 -100L5 -102L0 -102L-1 -105L-9 -107L-12 -112L-19 -113L-19 -111L-20 -112L-22 -108L-21 -104L-23 -104L-25 -100L-23 -98L-24 -95L-20 -95L-16 -92L-16 -86L-19 -83L-22 -84zM-30 -79L-30 -80zM-82 -97L-82 -96zM-30 -78L-30 -78zM-23 -84L-23 -84z" id="甘肃省"/><path class="leaflet-interactive" stroke="#3388ff" stroke-opacity="0" stroke-width="3" stroke-linecap="round" stroke-linejoin="round" fill="#eee" fill-opacity="0.5" fill-rule="evenodd" d="M-82 -97L-86 -104L-84 -105L-88 -109L-86 -113L-93 -119L-95 -124L-99 -123L-104 -127L-106 -125L-113 -131L-113 -133L-116 -135L-123 -136L-122 -137L-126 -140L-128 -139L-125 -136L-125 -134L-132 -138L-143 -148L-143 -150L-147 -152L-150 -149L-154 -151L-158 -146L-165 -149L-170 -154L-176 -155L-177 -149L-175 -143L-181 -140L-181 -134L-187 -135L-187 -133L-190 -133L-197 -138L-200 -136L-204 -136L-206 -138L-215 -137L-218 -145L-225 -144L-228 -146L-226 -147L-229 -149L-236 -148L-238 -154L-241 -154L-248 -152L-250 -150L-279 -143L-283 -139L-287 -139L-284 -134L-283 -136L-280 -136L-280 -124L-274 -121L-275 -120L-271 -119L-268 -111L-270 -109L-275 -108L-277 -104L-277 -102L-272 -100L-272 -94L-270 -92L-271 -91L-274 -90L-288 -94L-289 -91L-298 -89L-296 -86L-292 -87L-292 -79L-297 -77L-295 -71L-296 -68L-291 -68L-293 -64L-291 -59L-291 -53L-293 -53L-294 -50L-288 -44L-288 -41L-277 -33L-264 -33L-257 -27L-254 -29L-252 -25L-240 -26L-239 -24L-233 -21L-229 -23L-226 -20L-222 -20L-215 -24L-212 -23L-209 -19L-208 -20L-204 -18L-207 -18L-205 -18L-203 -14L-202 -15L-202 -10L-200 -7L-198 -8L-195 -6L-192 -8L-189 -4L-189 -9L-186 -10L-183 -6L-179 -6L-179 -12L-178 -11L-176 -12L-177 -13L-171 -13L-171 -17L-169 -17L-171 -21L-169 -23L-165 -21L-164 -22L-170 -27L-164 -39L-168 -41L-167 -42L-169 -42L-170 -47L-166 -49L-163 -54L-153 -51L-153 -47L-149 -43L-150 -42L-147 -38L-148 -36L-139 -28L-138 -29L-131 -26L-130 -31L-126 -28L-126 -24L-124 -23L-123 -26L-121 -26L-122 -25L-121 -26L-119 -22L-117 -22L-117 -24L-116 -23L-117 -25L-112 -23L-110 -25L-109 -24L-108 -27L-110 -34L-108 -36L-101 -33L-101 -38L-99 -40L-102 -40L-102 -44L-109 -43L-108 -46L-112 -48L-115 -55L-113 -57L-108 -57L-107 -55L-101 -52L-96 -52L-94 -56L-93 -55L-92 -57L-97 -62L-97 -66L-96 -68L-94 -67L-95 -68L-89 -73L-91 -78L-87 -80L-83 -79L-84 -80L-82 -81L-84 -85L-83 -87L-80 -86L-81 -91L-78 -94L-82 -96z" id="青海省"/><path class="leaflet-interactive" stroke="#3388ff" stroke-opacity="0" stroke-width="3" stroke-linecap="round" stroke-linejoin="round" fill="#eee" fill-opacity="0.5" fill-rule="evenodd" d="M-11 -111L-11 -116L-9 -120L-10 -121L-5 -126L-12 -133L-19 -133L-23 -136L-21 -138L-20 -144L-15 -151L-18 -154L-19 -158L-21 -158L-23 -156L-27 -156L-26 -154L-30 -152L-32 -148L-31 -147L-33 -146L-35 -126L-38 -123L-41 -124L-50 -120L-56 -120L-58 -118L-52 -118L-54 -114L-49 -114L-49 -111L-42 -106L-44 -102L-41 -99L-39 -92L-42 -90L-41 -86L-39 -84L-36 -84L-34 -79L-31 -80L-25 -74L-23 -76L-24 -83L-19 -83L-16 -86L-16 -92L-18 -94L-24 -95L-23 -98L-25 -100L-23 -104L-21 -104L-22 -109L-20 -110L-20 -112L-19 -111L-19 -113L-17 -111L-11 -111zM-30 -79L-33 -78L-30 -79zM-30 -79L-30 -78z" id="宁夏回族自治区"/><path class="leaflet-interactive" stroke="#3388ff" stroke-opacity="0" stroke-width="3" stroke-linecap="round" stroke-linejoin="round" fill="#eee" fill-opacity="0.5" fill-rule="evenodd" d="M-186 -230L-186 -233L-194 -242L-194 -245L-200 -258L-202 -258L-201 -264L-208 -263L-213 -265L-214 -268L-232 -280L-233 -279L-237 -281L-239 -280L-263 -282L-265 -284L-269 -283L-270 -285L-274 -285L-274 -287L-276 -287L-275 -288L-278 -294L-272 -304L-274 -310L-271 -317L-273 -324L-281 -334L-280 -336L-283 -342L-287 -345L-287 -347L-289 -348L-291 -346L-298 -352L-300 -350L-304 -351L-305 -353L-311 -356L-312 -360L-318 -362L-321 -365L-319 -367L-325 -372L-323 -374L-324 -379L-330 -377L-335 -379L-339 -378L-341 -374L-340 -368L-343 -366L-344 -363L-349 -361L-356 -361L-360 -355L-358 -337L-358 -332L-360 -328L-366 -328L-370 -323L-374 -327L-387 -326L-395 -331L-401 -332L-401 -328L-407 -310L-410 -303L-412 -302L-413 -297L-413 -293L-408 -290L-409 -284L-413 -286L-419 -286L-421 -289L-435 -283L-438 -284L-443 -281L-447 -282L-451 -278L-449 -276L-447 -277L-446 -274L-444 -274L-443 -272L-444 -269L-442 -257L-437 -246L-438 -238L-439 -239L-443 -236L-442 -234L-440 -234L-444 -232L-447 -228L-445 -220L-447 -217L-446 -215L-451 -215L-453 -211L-459 -210L-474 -201L-478 -201L-479 -198L-485 -194L-484 -193L-495 -192L-498 -194L-502 -191L-503 -185L-508 -178L-510 -180L-518 -177L-520 -185L-526 -180L-532 -182L-533 -181L-531 -178L-535 -178L-540 -173L-546 -173L-547 -168L-549 -166L-547 -165L-548 -161L-554 -158L-548 -149L-551 -148L-550 -144L-546 -140L-544 -144L-538 -143L-534 -141L-532 -138L-533 -133L-530 -125L-532 -123L-527 -118L-531 -114L-536 -115L-539 -112L-537 -110L-532 -110L-532 -108L-529 -110L-524 -109L-523 -104L-518 -104L-513 -97L-513 -94L-515 -92L-514 -90L-512 -90L-511 -86L-507 -86L-505 -88L-505 -86L-501 -82L-500 -83L-498 -81L-487 -78L-485 -80L-479 -79L-481 -77L-481 -72L-479 -71L-480 -70L-477 -62L-473 -60L-471 -61L-466 -57L-463 -59L-453 -59L-450 -66L-451 -67L-449 -67L-448 -71L-445 -74L-445 -77L-442 -78L-438 -76L-434 -76L-432 -78L-430 -76L-422 -74L-418 -75L-416 -79L-412 -80L-412 -82L-408 -84L-405 -82L-402 -83L-402 -80L-399 -77L-382 -77L-374 -82L-365 -85L-360 -82L-352 -86L-348 -93L-335 -96L-334 -95L-330 -98L-328 -96L-311 -99L-311 -97L-308 -95L-306 -97L-303 -94L-301 -95L-297 -92L-289 -91L-289 -93L-286 -94L-275 -90L-270 -92L-272 -94L-272 -100L-277 -101L-277 -106L-275 -108L-270 -109L-268 -113L-271 -119L-273 -119L-275 -122L-279 -124L-280 -136L-282 -136L-283 -134L-287 -138L-286 -140L-281 -140L-278 -143L-250 -150L-251 -155L-246 -161L-241 -183L-228 -185L-224 -195L-216 -203L-212 -204L-209 -208L-206 -209L-203 -204L-201 -208L-198 -210L-194 -210L-190 -213L-191 -217L-189 -218L-192 -224L-189 -227z" id="新疆维吾尔自治区"/><path class="leaflet-interactive" stroke="#3388ff" stroke-opacity="0" stroke-width="3" stroke-linecap="round" stroke-linejoin="round" fill="#eee" fill-opacity="0.5" fill-rule="evenodd" d="M201 162L203 162L205 171L207 171L209 169L210 160L216 152L221 132L225 125L224 120L227 117L220 111L210 117L209 121L205 124L196 140L196 146L194 151L196 152L199 160zM267 101L268 100zM250 104L250 103zM188 142L189 141L188 143zM253 100L254 100zM186 141L187 141zM186 145L186 146zM187 140L188 140zM227 106L228 105zM218 158L219 158zM218 168L220 168zM228 108L228 108zM185 148L185 148zM200 164L200 163z" id="台湾省"/><path class="leaflet-interactive" stroke="#3388ff" stroke-opacity="0" stroke-width="3" stroke-linecap="round" stroke-linejoin="round" fill="#eee" fill-opacity="0.5" fill-rule="evenodd" d="M98 161L95 165L98 166L98 164L100 164L102 166L104 162L102 162L102 160L99 160zM100 166L100 166zM103 163L103 163zM103 163L103 163zM103 163L103 163zM103 164L103 164zM103 163L103 163zM104 164L104 164zM103 164L103 164z" id="香港特别行政区"/><path class="leaflet-interactive" stroke="#3388ff" stroke-opacity="0" stroke-width="3" stroke-linecap="round" stroke-linejoin="round" fill="#eee" fill-opacity="0.5" fill-rule="evenodd" d="M90 167L91 166L90 167zM91 166L91 166z" id="澳门特别行政区"/><path class="leaflet-interactive" stroke="#3388ff" stroke-opacity="0" stroke-width="3" stroke-linecap="round" stroke-linejoin="round" fill="#eee" fill-opacity="0.5" fill-rule="evenodd" d="M235 144L239 124L235 144zM213 190L225 175L213 190z" id="100000_JD"/></g></svg>